<?xml version="1.0" encoding="utf-8"?>
<!-- Generator: Adobe Illustrator 25.2.1, SVG Export Plug-In . SVG Version: 6.00 Build 0)  -->
<svg version="1.1" id="Layer_1" xmlns="http://www.w3.org/2000/svg" xmlns:xlink="http://www.w3.org/1999/xlink" x="0px" y="0px"
	 viewBox="0 0 800 800" style="enable-background:new 0 0 800 800;" xml:space="preserve">
<style type="text/css">
	.st0{fill:#592E2C;stroke:#8D2C3E;stroke-width:6;stroke-miterlimit:10;}
	.st1{fill:url(#SVGID_1_);stroke:url(#SVGID_2_);stroke-miterlimit:10;}
	.st2{fill:url(#SVGID_3_);stroke:url(#SVGID_4_);stroke-miterlimit:10;}
	.st3{fill:#FFFFFF;}
	.st4{fill:url(#SVGID_5_);stroke:url(#SVGID_6_);stroke-miterlimit:10;}
	.st5{fill:url(#SVGID_7_);}
	.st6{fill:none;}
	.st7{fill:url(#SVGID_8_);stroke:url(#SVGID_9_);stroke-miterlimit:10;}
	.st8{fill:url(#SVGID_10_);}
	.st9{fill:#592E2C;}
	.st10{fill:url(#SVGID_11_);}
	.st11{fill:url(#SVGID_12_);}
	.st12{fill:url(#SVGID_13_);}
	.st13{fill:none;stroke:url(#Ellipse_1_copy_2_4_);stroke-width:3;stroke-linejoin:round;}
	.st14{fill:none;stroke:url(#Ellipse_1_copy_2_5_);stroke-width:3;stroke-linejoin:round;}
	.st15{fill:none;stroke:url(#Ellipse_1_copy_2_6_);stroke-width:3;stroke-linejoin:round;}
</style>
<linearGradient id="SVGID_1_" gradientUnits="userSpaceOnUse" x1="-2290.4663" y1="-2175.8928" x2="-1490.4974" y2="-2175.8928" gradientTransform="matrix(0.0675 -0.9977 0.9977 0.0675 2698.5273 -1339.3112)">
	<stop  offset="0.0619" style="stop-color:#3371B8"/>
	<stop  offset="0.1281" style="stop-color:#3176BA"/>
	<stop  offset="0.2465" style="stop-color:#2987C2"/>
	<stop  offset="0.4024" style="stop-color:#09A2D0"/>
	<stop  offset="0.4225" style="stop-color:#00A6D2"/>
	<stop  offset="0.7577" style="stop-color:#51B9C1"/>
	<stop  offset="0.931" style="stop-color:#66C5B6"/>
</linearGradient>
<circle style="fill:url(#SVGID_1_);" cx="400" cy="400" r="399.98"/>
<path id="Path_522_2_" class="st6" d="M223.97,223.97h352.05v352.05H223.97V223.97z"/>
<path id="Path_523_2_" class="st3" d="M242.08,550.36h106.35V347.93H242.08V550.36z M564.79,364.79
	c-0.05-18.61-13.15-33.68-29.34-33.74h-92.56l13.94-77.09l0.44-5.4c-0.01-6.71-2.33-13.14-6.45-17.88l-15.55-17.71l-96.52,111.17
	c-32.06,23.79-55.02,28.43-54.98,37.38l46.32,155.1c0.05,18.61,13.15,33.68,29.34,33.74h132.02c11.79,0.05,22.44-8.07,26.99-20.58
	l44.3-118.93c1.36-3.92,2.05-8.1,2.05-12.31V364.79z"/>
</svg>
