<?xml version="1.0" encoding="utf-8"?>
<!-- Generator: Adobe Illustrator 25.2.1, SVG Export Plug-In . SVG Version: 6.00 Build 0)  -->
<svg version="1.1" id="Layer_1" xmlns="http://www.w3.org/2000/svg" xmlns:xlink="http://www.w3.org/1999/xlink" x="0px" y="0px"
	 viewBox="0 0 800 800" style="enable-background:new 0 0 800 800;" xml:space="preserve">
<style type="text/css">
	.st0{fill:#592E2C;stroke:#8D2C3E;stroke-width:6;stroke-miterlimit:10;}
	.st1{fill:url(#SVGID_1_);stroke:url(#SVGID_2_);stroke-miterlimit:10;}
	.st2{fill:url(#SVGID_3_);stroke:url(#SVGID_4_);stroke-miterlimit:10;}
	.st3{fill:#FFFFFF;}
	.st4{fill:url(#SVGID_5_);stroke:url(#SVGID_6_);stroke-miterlimit:10;}
	.st5{fill:url(#SVGID_7_);}
	.st6{fill:none;}
	.st7{fill:url(#SVGID_8_);stroke:url(#SVGID_9_);stroke-miterlimit:10;}
	.st8{fill:url(#SVGID_10_);}
	.st9{fill:#592E2C;}
	.st10{fill:url(#SVGID_11_);}
	.st11{fill:url(#SVGID_12_);}
	.st12{fill:url(#SVGID_13_);}
	.st13{fill:none;stroke:url(#Ellipse_1_copy_2_4_);stroke-width:3;stroke-linejoin:round;}
	.st14{fill:none;stroke:url(#Ellipse_1_copy_2_5_);stroke-width:3;stroke-linejoin:round;}
	.st15{fill:none;stroke:url(#Ellipse_1_copy_2_6_);stroke-width:3;stroke-linejoin:round;}
</style>
<linearGradient id="SVGID_1_" gradientUnits="userSpaceOnUse" x1="-1989.2158" y1="-113.7082" x2="-1423.5813" y2="-679.3427" gradientTransform="matrix(0.7819 -0.6234 0.6234 0.7819 1982.5374 -363.9828)">
	<stop  offset="0.0351" style="stop-color:#D02127"/>
	<stop  offset="0.4887" style="stop-color:#E22B2A"/>
	<stop  offset="1" style="stop-color:#EF4241"/>
</linearGradient>
<circle style="fill:url(#SVGID_1_);" cx="399.99" cy="400" r="399.96"/>
<path id="Path_263_2_" class="st3" d="M400,565.25l-26.11-23.77C281.13,457.36,219.9,401.89,219.9,333.81
	c-0.53-54.18,42.96-98.53,97.14-99.06c0.64-0.01,1.28-0.01,1.92,0C350.14,235,379.7,248.72,400,272.4
	c20.3-23.68,49.86-37.4,81.05-37.64c54.18-0.53,98.53,42.96,99.06,97.14c0.01,0.64,0.01,1.28,0,1.92
	c0,68.08-61.23,123.55-153.99,207.84L400,565.25z"/>
</svg>
